<svg width="217" height="199" viewBox="0 0 217 199" fill="none" xmlns="http://www.w3.org/2000/svg">
<path d="M216.458 91.2142L192.141 79.7331C194.827 74.6487 196.356 68.854 196.356 62.7019C196.356 42.5287 180.002 26.1701 159.824 26.1701C159.687 26.1701 159.556 26.1795 159.424 26.1795C154.419 11.9703 140.888 1.77791 124.966 1.77791C116.1 1.77791 107.973 4.93864 101.647 10.1924C95.9366 3.93209 87.715 0 78.5762 0C61.3521 0 47.3922 13.9599 47.3922 31.184C47.3922 31.184 47.3922 31.1887 47.3922 31.1934C32.9949 33.9543 22.1111 46.6066 22.1111 61.8129C22.1111 64.7996 22.5391 67.6875 23.3246 70.4202C12.5019 71.582 3.87577 79.9918 2.33774 90.6922C2.15901 90.9461 2.13079 91.2566 2.20605 91.5482C2.11668 92.3901 2.06494 93.2414 2.06494 94.1069C2.06494 107.272 12.7371 117.939 25.8974 117.939C31.1088 117.939 35.9158 116.246 39.8384 113.41L108.871 152.82L216.458 91.2095V91.2142Z" fill="#D7E2F4"/>
<path d="M29.6225 102.658C33.6826 102.658 36.974 99.3664 36.974 95.3062C36.974 91.2461 33.6826 87.9547 29.6225 87.9547C25.5624 87.9547 22.271 91.2461 22.271 95.3062C22.271 99.3664 25.5624 102.658 29.6225 102.658Z" fill="#8FB0F9"/>
<path d="M120.287 152.585C131.482 152.585 140.559 143.509 140.559 132.313C140.559 121.117 131.482 112.041 120.287 112.041C109.091 112.041 100.015 121.117 100.015 132.313C100.015 143.509 109.091 152.585 120.287 152.585Z" fill="#ADC9F2"/>
<path d="M170.265 38.6999C155.21 38.6999 143.009 50.9054 143.009 65.9564C143.009 68.5528 143.395 71.0597 144.077 73.4397C142.656 73.1245 141.184 72.9458 139.669 72.9458C128.475 72.9458 119.397 82.0188 119.397 93.2177C119.397 104.417 128.47 113.49 139.669 113.49C150.868 113.49 159.941 104.417 159.941 93.2177C159.941 92.5169 159.904 91.8208 159.838 91.1388C163.055 92.4746 166.573 93.2177 170.275 93.2177C185.331 93.2177 197.531 81.0122 197.531 65.9611C197.531 50.9101 185.326 38.7046 170.275 38.7046L170.265 38.6999Z" fill="url(#paint0_linear_187_1927)"/>
<path d="M125.709 98.9844C121.058 94.6666 115.282 92.3384 109.407 91.9292C108.998 80.0201 101.237 69.1174 89.2294 65.3217C80.6926 62.622 71.836 64.0894 64.8466 68.5765C54.0051 59.3577 37.7406 60.2091 27.9668 70.7401C17.9249 81.5628 18.5598 98.4764 29.3825 108.514C35.0596 113.782 42.4064 116.082 49.5604 115.545C49.9555 115.964 50.3364 116.387 50.7645 116.782C51.089 117.083 51.4323 117.342 51.7663 117.624C51.2442 118.104 50.7221 118.588 50.233 119.12C40.1911 129.943 40.826 146.856 51.6487 156.893C62.4714 166.935 79.385 166.3 89.4222 155.478C92.8699 151.762 95.0287 147.322 95.9788 142.694C106.261 147.623 118.96 145.558 127.12 136.763C137.162 125.94 136.527 109.026 125.705 98.9891L125.709 98.9844Z" fill="url(#paint1_linear_187_1927)"/>
<path d="M135.841 113.72C132.388 113.227 129.049 113.984 126.269 115.639C122.356 110.39 115.437 107.898 108.824 109.944C104.12 111.397 100.583 114.835 98.8337 119.05C91.0542 118.283 83.9708 123.758 82.8561 131.575C81.7084 139.604 87.2914 147.045 95.3203 148.192C99.5299 148.794 103.57 147.534 106.632 145.05C106.943 145.116 107.248 145.187 107.563 145.234C107.803 145.267 108.038 145.276 108.278 145.3C108.194 145.681 108.109 146.061 108.053 146.457C106.905 154.485 112.488 161.926 120.517 163.074C128.546 164.222 135.986 158.639 137.134 150.61C137.529 147.854 137.111 145.173 136.09 142.783C142.275 141.791 147.364 136.88 148.295 130.352C149.443 122.323 143.86 114.882 135.831 113.735L135.841 113.72Z" fill="url(#paint2_linear_187_1927)"/>
<path d="M108.998 152.632C109.007 152.382 109.036 152.138 109.036 151.884C109.036 138.719 98.3635 128.051 85.2032 128.051C84.9069 128.051 84.6153 128.084 84.319 128.094C84.018 113.043 71.8313 100.926 56.8178 100.926C56.1499 100.926 55.4915 100.978 54.8377 101.025C54.9788 100.089 55.0728 99.1438 55.0728 98.1702C55.0728 87.6062 46.569 79.0412 36.085 79.0412C31.0758 79.0412 26.5322 81.012 23.1363 84.2056C18.8515 82.9216 14.6513 82.8557 10.8086 84.1962C9.7785 83.6459 8.60263 83.3308 7.35151 83.3308C3.29242 83.3308 0 86.6232 0 90.6823C0 92.3567 0.569119 93.8948 1.50981 95.1318V125.516C1.50981 134.316 6.30734 142.42 14.0257 146.653L109.097 198.777V152.688L109.003 152.636L108.998 152.632Z" fill="url(#paint3_linear_187_1927)"/>
<path d="M216.9 87.315C216.9 70.0909 202.602 56.131 184.964 56.131C167.326 56.131 153.027 70.0909 153.027 87.315C153.027 87.9311 153.051 88.5379 153.088 89.1446C139.302 92.3665 129.03 104.732 129.03 119.501C129.03 122.487 129.458 125.375 130.244 128.108C118.292 129.392 108.984 139.505 108.984 151.799C108.984 152.543 109.026 153.276 109.097 154.005V198.688L205.189 146.009C212.277 142.124 216.684 134.684 216.684 126.598V90.9931H216.679C216.825 89.789 216.91 88.5614 216.91 87.3197L216.9 87.315Z" fill="url(#paint4_linear_187_1927)"/>
<defs>
<linearGradient id="paint0_linear_187_1927" x1="124.543" y1="63.4401" x2="196.911" y2="92.8791" gradientUnits="userSpaceOnUse">
<stop stop-color="#8FB0F9"/>
<stop offset="1" stop-color="#FEFFFF"/>
</linearGradient>
<linearGradient id="paint1_linear_187_1927" x1="31.4949" y1="122.983" x2="125.229" y2="88.9596" gradientUnits="userSpaceOnUse">
<stop offset="0.51" stop-color="white"/>
<stop offset="1" stop-color="#ADC9F2"/>
</linearGradient>
<linearGradient id="paint2_linear_187_1927" x1="100.807" y1="154.064" x2="132.479" y2="109.349" gradientUnits="userSpaceOnUse">
<stop offset="0.24" stop-color="#5A82F1"/>
<stop offset="0.98" stop-color="#D7E2F4"/>
</linearGradient>
<linearGradient id="paint3_linear_187_1927" x1="39.4762" y1="152.519" x2="130.968" y2="93.0905" gradientUnits="userSpaceOnUse">
<stop stop-color="#D7E2F4"/>
<stop offset="0.07" stop-color="#C8D8F4"/>
<stop offset="0.22" stop-color="#AFC6F6"/>
<stop offset="0.37" stop-color="#9DB9F8"/>
<stop offset="0.53" stop-color="#92B2F8"/>
<stop offset="0.71" stop-color="#8FB0F9"/>
</linearGradient>
<linearGradient id="paint4_linear_187_1927" x1="139.5" y1="114.557" x2="218.72" y2="187.847" gradientUnits="userSpaceOnUse">
<stop offset="0.16" stop-color="#5A82F1"/>
<stop offset="1" stop-color="#4B66A2"/>
</linearGradient>
</defs>
</svg>
