<svg width="220" height="220" viewBox="0 0 220 220" fill="none" xmlns="http://www.w3.org/2000/svg">
<path d="M218.453 111.782L194.137 100.301C196.822 95.2161 198.351 89.4214 198.351 83.2693C198.351 63.0962 181.997 46.7375 161.819 46.7375C161.683 46.7375 161.551 46.7469 161.419 46.7469C156.415 32.5378 142.883 22.3454 126.962 22.3454C118.096 22.3454 109.968 25.5061 103.642 30.7599C97.9366 24.4949 89.715 20.5628 80.5762 20.5628C63.3521 20.5628 49.3922 34.5226 49.3922 51.7467C49.3922 51.7467 49.3922 51.7514 49.3922 51.7561C34.9949 54.517 24.1111 67.1694 24.1111 82.3757C24.1111 85.3624 24.5391 88.2503 25.3246 90.983C14.5019 92.1448 5.87578 100.555 4.33774 111.255C4.15901 111.509 4.13079 111.819 4.20605 112.111C4.11668 112.953 4.06494 113.804 4.06494 114.67C4.06494 127.835 14.7371 138.502 27.8974 138.502C33.1088 138.502 37.9158 136.809 41.8384 133.973L110.871 173.383L218.458 111.772L218.453 111.782Z" fill="url(#paint0_linear_187_1936)"/>
<path d="M31.6176 123.225C35.6778 123.225 38.9691 119.933 38.9691 115.873C38.9691 111.813 35.6778 108.522 31.6176 108.522C27.5575 108.522 24.2661 111.813 24.2661 115.873C24.2661 119.933 27.5575 123.225 31.6176 123.225Z" fill="#8FB0F9"/>
<path d="M122.282 173.153C133.478 173.153 142.554 164.077 142.554 152.881C142.554 141.685 133.478 132.609 122.282 132.609C111.086 132.609 102.01 141.685 102.01 152.881C102.01 164.077 111.086 173.153 122.282 173.153Z" fill="#ADC9F2"/>
<path d="M172.261 59.2719C157.205 59.2719 145.004 71.4774 145.004 86.5285C145.004 89.1248 145.39 91.6317 146.072 94.0117C144.651 93.6965 143.179 93.5178 141.665 93.5178C130.47 93.5178 121.393 102.591 121.393 113.79C121.393 124.989 130.466 134.062 141.665 134.062C152.863 134.062 161.936 124.989 161.936 113.79C161.936 113.089 161.899 112.393 161.833 111.711C165.05 113.047 168.568 113.79 172.27 113.79C187.326 113.79 199.526 101.584 199.526 86.5331C199.526 71.4821 187.321 59.2766 172.27 59.2766L172.261 59.2719Z" fill="url(#paint1_linear_187_1936)"/>
<path d="M127.709 119.552C123.058 115.234 117.282 112.906 111.407 112.497C110.998 100.587 103.237 89.6848 91.2294 85.8891C82.6926 83.1893 73.836 84.6568 66.8466 89.1439C56.0051 79.9251 39.7406 80.7765 29.9668 91.3075C19.9249 102.13 20.5598 119.044 31.3825 129.081C37.0596 134.349 44.4064 136.649 51.5604 136.113C51.9555 136.531 52.3364 136.955 52.7645 137.35C53.089 137.651 53.4323 137.909 53.7663 138.192C53.2442 138.671 52.7221 139.156 52.233 139.687C42.1911 150.51 42.826 167.424 53.6487 177.461C64.4714 187.503 81.385 186.868 91.4222 176.045C94.8698 172.329 97.0287 167.889 97.9788 163.261C108.261 168.19 120.96 166.125 129.12 157.33C139.162 146.507 138.527 129.594 127.705 119.557L127.709 119.552Z" fill="url(#paint2_linear_187_1936)"/>
<path d="M137.836 134.293C134.384 133.799 131.044 134.556 128.265 136.212C124.351 130.962 117.433 128.47 110.819 130.516C106.116 131.969 102.579 135.407 100.829 139.622C93.0498 138.855 85.9664 144.33 84.8517 152.147C83.704 160.176 89.287 167.617 97.3159 168.764C101.525 169.366 105.566 168.106 108.628 165.622C108.938 165.688 109.244 165.759 109.559 165.806C109.799 165.839 110.034 165.848 110.274 165.872C110.189 166.253 110.105 166.634 110.048 167.029C108.9 175.057 114.484 182.498 122.512 183.646C130.541 184.794 137.982 179.211 139.13 171.182C139.525 168.426 139.106 165.745 138.085 163.355C144.271 162.363 149.36 157.452 150.291 150.924C151.439 142.895 145.856 135.454 137.827 134.307L137.836 134.293Z" fill="url(#paint3_linear_187_1936)"/>
<path d="M110.998 173.199C111.007 172.95 111.036 172.706 111.036 172.452C111.036 159.287 100.364 148.619 87.2032 148.619C86.9069 148.619 86.6153 148.652 86.319 148.661C86.0179 133.61 73.8313 121.494 58.8178 121.494C58.1499 121.494 57.4914 121.546 56.8377 121.593C56.9788 120.657 57.0728 119.712 57.0728 118.738C57.0728 108.174 48.569 99.609 38.085 99.609C33.0758 99.609 28.5322 101.58 25.1363 104.773C20.8515 103.489 16.6513 103.423 12.8086 104.764C11.7785 104.214 10.6026 103.899 9.35151 103.899C5.29242 103.899 2 107.191 2 111.25C2 112.924 2.56911 114.463 3.50981 115.7V146.084C3.50981 154.884 8.30734 162.988 16.0257 167.221L111.097 219.345V173.256L111.003 173.204L110.998 173.199Z" fill="url(#paint4_linear_187_1936)"/>
<path d="M218.9 107.887C218.9 90.6629 204.602 76.703 186.964 76.703C169.326 76.703 155.027 90.6629 155.027 107.887C155.027 108.503 155.051 109.11 155.088 109.717C141.302 112.938 131.03 125.304 131.03 140.073C131.03 143.059 131.458 145.947 132.244 148.68C120.292 149.964 110.984 160.077 110.984 172.371C110.984 173.115 111.026 173.848 111.097 174.577V219.26L207.188 166.581C214.277 162.696 218.684 155.256 218.684 147.17V111.565H218.679C218.825 110.361 218.91 109.133 218.91 107.892L218.9 107.887Z" fill="url(#paint5_linear_187_1936)"/>
<path d="M101.027 213.786C106.662 216.998 115.946 217.101 121.741 213.522L111.191 219.646L101.027 213.786Z" fill="#E489E4"/>
<path d="M199.08 60.7538V52.4239C199.08 49.3068 196.553 46.7798 193.435 46.7798H185.106C181.988 46.7798 179.461 49.3068 179.461 52.4239V60.7538C179.461 63.8709 181.988 66.3979 185.106 66.3979H193.435C196.553 66.3979 199.08 63.8709 199.08 60.7538Z" fill="#78EBC4"/>
<path d="M41.8429 29.7907C45.0665 29.7907 47.6798 27.1774 47.6798 23.9537C47.6798 20.73 45.0665 18.1167 41.8429 18.1167C38.6192 18.1167 36.0059 20.73 36.0059 23.9537C36.0059 27.1774 38.6192 29.7907 41.8429 29.7907Z" fill="#8AB6F3"/>
<path d="M149.044 18.3475C153.172 18.3475 156.518 15.0014 156.518 10.8737C156.518 6.74604 153.172 3.3999 149.044 3.3999C144.916 3.3999 141.57 6.74604 141.57 10.8737C141.57 15.0014 144.916 18.3475 149.044 18.3475Z" fill="#EF8BBD"/>
<path d="M187.509 37.6224C185.896 29.7253 180.99 24.7584 172.952 22.5995C171.423 22.1903 171.659 19.8668 173.173 19.3965C180.868 17.0212 186.366 11.8709 187.688 5.10737C187.998 3.5176 190.538 3.54582 190.924 5.11678C192.721 12.5294 197.824 16.5791 205.359 18.9026C206.883 19.373 206.859 21.6683 205.331 22.1198C197.203 24.5374 192.279 29.5936 190.703 37.5095C190.397 39.0381 187.824 39.1463 187.509 37.6177V37.6224Z" fill="#FFE266"/>
<path d="M42.6427 106.65C41.8149 102.605 39.3032 100.061 35.1877 98.9552C34.4022 98.7436 34.5245 97.5536 35.3006 97.3137C39.2421 96.0955 42.0595 93.4616 42.7321 89.9951C42.892 89.1814 44.1948 89.1955 44.3877 89.9951C45.3096 93.7908 47.92 95.865 51.7815 97.055C52.5623 97.2949 52.5529 98.4708 51.7674 98.7012C47.6049 99.9382 45.0838 102.53 44.2748 106.584C44.1196 107.365 42.7979 107.421 42.638 106.641L42.6427 106.65Z" fill="#78EBC4"/>
<defs>
<linearGradient id="paint0_linear_187_1936" x1="16.515" y1="127.778" x2="215.274" y2="47.4054" gradientUnits="userSpaceOnUse">
<stop stop-color="#D5CDEF"/>
<stop offset="0.12" stop-color="#DACDEF"/>
<stop offset="0.28" stop-color="#E9CDEF"/>
<stop offset="0.36" stop-color="#F5CDF0"/>
<stop offset="0.46" stop-color="#EDD2F1"/>
<stop offset="0.61" stop-color="#D7E2F4"/>
</linearGradient>
<linearGradient id="paint1_linear_187_1936" x1="126.538" y1="84.0121" x2="198.91" y2="113.451" gradientUnits="userSpaceOnUse">
<stop stop-color="#8FB0F9"/>
<stop offset="1" stop-color="#FEFFFF"/>
</linearGradient>
<linearGradient id="paint2_linear_187_1936" x1="33.4872" y1="143.554" x2="127.217" y2="109.532" gradientUnits="userSpaceOnUse">
<stop offset="0.51" stop-color="white"/>
<stop offset="1" stop-color="#ADC9F2"/>
</linearGradient>
<linearGradient id="paint3_linear_187_1936" x1="84.7059" y1="156.789" x2="150.451" y2="156.789" gradientUnits="userSpaceOnUse">
<stop offset="0.24" stop-color="#EAC2E5"/>
<stop offset="0.98" stop-color="#F2FAE5"/>
</linearGradient>
<linearGradient id="paint4_linear_187_1936" x1="41.4762" y1="173.086" x2="132.968" y2="113.658" gradientUnits="userSpaceOnUse">
<stop stop-color="#B4C8F4"/>
<stop offset="0.08" stop-color="#BED0F4"/>
<stop offset="0.27" stop-color="#D7E2F4"/>
<stop offset="0.64" stop-color="#9FFDEF"/>
</linearGradient>
<linearGradient id="paint5_linear_187_1936" x1="125.264" y1="108.287" x2="192.453" y2="192.742" gradientUnits="userSpaceOnUse">
<stop offset="0.13" stop-color="#5A82F1"/>
<stop offset="0.28" stop-color="#7573E9"/>
<stop offset="0.49" stop-color="#9662E1"/>
<stop offset="0.56" stop-color="#9668E1"/>
<stop offset="0.65" stop-color="#9979E3"/>
<stop offset="0.75" stop-color="#9E96E5"/>
<stop offset="0.87" stop-color="#A4BEE9"/>
<stop offset="0.99" stop-color="#ACF1EE"/>
<stop offset="1" stop-color="#ADF6EF"/>
</linearGradient>
</defs>
</svg>
