<svg width="220" height="200" viewBox="0 0 220 200" fill="none" xmlns="http://www.w3.org/2000/svg">
<path d="M27.7488 52.1735L4 66.2164C55.5392 71.1535 112.165 144.014 130.545 186.338L144.729 177.95C150.103 160.012 81.6793 64.8889 27.7488 52.1689V52.1735Z" fill="#FF857E"/>
<path d="M40.1097 44.8952L16.3608 58.9381C67.9 63.8751 124.526 136.736 142.906 179.06L157.09 170.672C162.463 152.733 94.0401 57.6106 40.1097 44.8906V44.8952Z" fill="#FCAF63"/>
<path d="M51.9022 37.9171L28.1533 51.9601C79.6925 56.8971 140.551 128.153 154.699 172.082L168.882 163.694C161.918 136.768 103.159 51.4691 51.9022 37.9126V37.9171Z" fill="#FFEA52"/>
<path d="M56.4164 34.7852L39.4004 45.4685C90.9395 50.4056 153.644 118.456 165.946 165.59L180.13 157.203C165.082 108.668 107.674 48.3371 56.4164 34.7852Z" fill="#B7EC64"/>
<path d="M77.4695 23.1105L53.7207 37.1534C105.26 42.0905 161.886 114.951 180.266 157.275L194.45 148.888C199.823 130.949 131.4 35.826 77.4695 23.106V23.1105Z" fill="#81D37A"/>
<path d="M89.262 16.1323L65.5132 30.1752C117.052 35.1123 177.911 106.368 192.058 150.297L206.242 141.909C199.278 114.992 140.519 29.6888 89.262 16.1323Z" fill="#5694EE"/>
<path d="M93.3266 13L76.3105 23.6833C127.85 28.6204 190.554 96.671 202.856 143.805L217.04 135.417C201.988 86.8832 144.584 26.5519 93.3266 13Z" fill="#C075FC"/>
</svg>
