<svg width="244" height="222" viewBox="0 0 244 222" fill="none" xmlns="http://www.w3.org/2000/svg">
<path d="M213.476 57.3907L239.6 72.8379C182.907 78.2687 120.618 158.415 100.4 204.972L84.798 195.745C78.8872 176.013 154.153 71.3777 213.476 57.3857V57.3907Z" fill="#FF857E"/>
<path d="M199.879 49.3846L226.003 64.8318C169.31 70.2626 107.021 150.409 86.8031 196.966L71.2009 187.739C65.29 168.007 140.556 63.3716 199.879 49.3796V49.3846Z" fill="#FCAF63"/>
<path d="M186.908 41.7089L213.031 57.1561C156.338 62.5868 89.3936 140.968 73.8314 189.29L58.2292 180.064C65.8903 150.444 130.524 56.616 186.908 41.7039V41.7089Z" fill="#FFEA52"/>
<path d="M181.942 38.2637L200.659 50.0153C143.966 55.4461 74.9913 130.302 61.4594 182.149L45.8571 172.923C62.4095 119.535 125.558 53.1708 181.942 38.2637Z" fill="#B7EC64"/>
<path d="M158.784 25.4215L184.907 40.8687C128.214 46.2995 65.9253 126.446 45.7074 173.003L30.1052 163.776C24.1943 144.043 99.46 39.4085 158.784 25.4165V25.4215Z" fill="#81D37A"/>
<path d="M145.812 17.7456L171.936 33.1928C115.242 38.6236 48.2979 117.005 32.7357 165.327L17.1335 156.1C24.7946 126.491 89.4288 32.6577 145.812 17.7456Z" fill="#5694EE"/>
<path d="M141.341 14.3L160.059 26.0517C103.366 31.4825 34.3907 106.338 20.8588 158.186L5.25655 148.959C21.8139 95.5716 84.9579 29.2072 141.341 14.3Z" fill="#C075FC"/>
</svg>
