<svg width="58" height="58" viewBox="0 0 58 58" fill="none" xmlns="http://www.w3.org/2000/svg">
<path d="M48.1015 0H9.89846C4.43169 0 0 4.43169 0 9.89846V48.1015C0 53.5683 4.43169 58 9.89846 58H48.1015C53.5683 58 58 53.5683 58 48.1015V9.89846C58 4.43169 53.5683 0 48.1015 0Z" fill="#5A82F1"/>
<path d="M33.8576 31.9621C33.8576 38.015 28.9529 42.9197 22.9 42.9197C16.8471 42.9197 11.9424 38.015 11.9424 31.9621" stroke="white" stroke-width="6.92892" stroke-linecap="round" stroke-linejoin="round"/>
<path d="M24.1423 26.0379C24.1423 19.985 29.047 15.0803 35.0999 15.0803C41.1528 15.0803 46.0575 19.985 46.0575 26.0379" stroke="white" stroke-width="6.92892" stroke-miterlimit="10" stroke-linecap="round"/>
</svg>
