<svg width="216" height="80" viewBox="0 0 216 80" fill="none" xmlns="http://www.w3.org/2000/svg">
<path d="M53.1015 11H14.8985C9.43169 11 5 15.4317 5 20.8985V59.1015C5 64.5683 9.43169 69 14.8985 69H53.1015C58.5683 69 63 64.5683 63 59.1015V20.8985C63 15.4317 58.5683 11 53.1015 11Z" fill="#5A82F1"/>
<path d="M38.8576 42.9621C38.8576 49.015 33.9529 53.9197 27.9 53.9197C21.8471 53.9197 16.9424 49.015 16.9424 42.9621" stroke="white" stroke-width="6.92892" stroke-linecap="round" stroke-linejoin="round"/>
<path d="M29.1423 37.0379C29.1423 30.985 34.047 26.0803 40.0999 26.0803C46.1528 26.0803 51.0575 30.985 51.0575 37.0379" stroke="white" stroke-width="6.92892" stroke-miterlimit="10" stroke-linecap="round"/>
<path d="M110.005 33.8987C110.005 34.7369 109.779 35.4086 109.34 35.9019C108.894 36.4012 108.293 36.6509 107.533 36.6509H98.4499C97.6891 36.6509 97.0887 36.4012 96.6429 35.9019C96.1971 35.4026 95.9772 34.7369 95.9772 33.8987V31.3012H79.5357C78.7749 31.3012 78.1745 31.0515 77.7287 30.5522C77.2829 30.0529 77.063 29.3872 77.063 28.549V23.7521C77.063 22.914 77.2829 22.2423 77.7287 21.749C78.1745 21.2497 78.7749 21 79.5357 21H107.533C108.293 21 108.894 21.2497 109.34 21.749C109.785 22.2483 110.005 22.914 110.005 23.7521V33.8987ZM110.005 45.2223C110.005 46.0604 109.779 46.7321 109.34 47.2255C108.894 47.7248 108.293 47.9744 107.533 47.9744H100.102V53.1636C100.102 54.0018 99.8765 54.6735 99.4367 55.1668C98.9909 55.6661 98.3905 55.9158 97.6297 55.9158H89.4505C88.6897 55.9158 88.0893 55.6661 87.6435 55.1668C87.1977 54.6675 86.9778 54.0018 86.9778 53.1636V47.9744H79.5357C78.7749 47.9744 78.1745 47.7248 77.7287 47.2255C77.2829 46.7262 77.063 46.0604 77.063 45.2223V40.3838C77.063 39.5457 77.2829 38.874 77.7287 38.3806C78.1745 37.8813 78.7749 37.6317 79.5357 37.6317H107.533C108.293 37.6317 108.894 37.8813 109.34 38.3806C109.785 38.8799 110.005 39.5457 110.005 40.3838V45.2223Z" fill="#5A82F1"/>
<path d="M145.185 34.411C145.185 35.1183 144.995 35.689 144.615 36.1229C144.234 36.5568 143.717 36.7708 143.063 36.7708H114.716C113.955 36.7708 113.355 36.5211 112.909 36.0218C112.463 35.5225 112.243 34.8568 112.243 34.0187V29.6141C112.243 28.7759 112.463 28.0805 112.909 27.5277C113.355 26.9749 113.943 26.6777 114.68 26.6242C117.616 26.3389 120.458 26.214 123.21 26.2497C125.962 26.2913 128.845 26.4934 131.859 26.8619V25.8812C128.791 25.5423 125.855 25.3521 123.049 25.3105C120.244 25.2689 117.349 25.3819 114.359 25.6434C113.705 25.6969 113.188 25.5305 112.808 25.15C112.427 24.7696 112.237 24.2287 112.237 23.5154C112.237 22.7546 112.427 22.1601 112.808 21.7262C113.188 21.2923 113.705 21.0783 114.359 21.0783H142.707C143.467 21.0783 144.068 21.328 144.514 21.8273C144.959 22.3266 145.179 22.9923 145.179 23.8304V28.235C145.179 29.0732 144.954 29.7686 144.514 30.3214C144.068 30.8742 143.479 31.1714 142.742 31.2249C139.806 31.5162 136.965 31.6351 134.212 31.5994C131.46 31.5578 128.577 31.3557 125.564 30.9872V31.9679C128.631 32.3365 131.567 32.5386 134.373 32.5802C137.179 32.6218 140.073 32.497 143.063 32.2057C143.717 32.1522 144.234 32.3186 144.615 32.6991C144.995 33.0795 145.185 33.6204 145.185 34.3337V34.411ZM145.185 40.902C145.185 41.6093 144.995 42.1799 144.615 42.6139C144.234 43.0478 143.717 43.2618 143.063 43.2618H114.359C113.705 43.2618 113.188 43.0478 112.808 42.6139C112.427 42.1799 112.237 41.6093 112.237 40.902V40.0757C112.237 39.3684 112.427 38.7977 112.808 38.3638C113.188 37.9299 113.705 37.7159 114.359 37.7159H143.063C143.717 37.7159 144.234 37.9299 144.615 38.3638C144.995 38.7977 145.185 39.3684 145.185 40.0757V40.902ZM145.185 53.2479C145.185 54.086 144.959 54.7577 144.52 55.2511C144.074 55.7504 143.473 56 142.713 56H114.716C113.955 56 113.355 55.7504 112.909 55.2511C112.463 54.7518 112.243 54.086 112.243 53.2479V46.9947C112.243 46.1566 112.463 45.4849 112.909 44.9915C113.355 44.4922 113.955 44.2425 114.716 44.2425H142.713C143.473 44.2425 144.074 44.4922 144.52 44.9915C144.965 45.4908 145.185 46.1566 145.185 46.9947V53.2479ZM131.859 49.5507C129.76 49.943 127.662 49.943 125.57 49.5507V50.6919C127.668 51.0842 129.766 51.0842 131.859 50.6919V49.5507Z" fill="#5A82F1"/>
<path d="M167.131 53.2479C167.131 54.086 166.905 54.7577 166.465 55.251C166.019 55.7503 165.419 56 164.658 56H150.113C149.352 56 148.752 55.7503 148.306 55.251C147.86 54.7517 147.64 54.086 147.64 53.2479V23.8364C147.64 22.9982 147.86 22.3265 148.306 21.8332C148.752 21.3339 149.352 21.0842 150.113 21.0842H164.658C165.419 21.0842 166.019 21.3339 166.465 21.8332C166.911 22.3325 167.131 22.9982 167.131 23.8364V28.6333C167.131 29.4714 166.905 30.1431 166.465 30.6364C166.019 31.1357 165.419 31.3854 164.658 31.3854H159.35V45.6988H164.658C165.419 45.6988 166.019 45.9485 166.465 46.4478C166.911 46.9471 167.131 47.6128 167.131 48.451V53.2479ZM179.709 53.2479C179.709 54.086 179.483 54.7577 179.043 55.251C178.597 55.7503 177.997 56 177.236 56H170.632C169.871 56 169.271 55.7503 168.825 55.251C168.379 54.7517 168.159 54.086 168.159 53.2479V23.8364C168.159 22.9982 168.379 22.3265 168.825 21.8332C169.271 21.3339 169.871 21.0842 170.632 21.0842H177.236C177.997 21.0842 178.597 21.3339 179.043 21.8332C179.489 22.3325 179.709 22.9982 179.709 23.8364V31.742C179.709 32.1641 179.833 32.491 180.083 32.7228C180.333 32.9606 180.612 33.1746 180.927 33.3707C181.242 33.5669 181.522 33.7749 181.771 34.0008C182.021 34.2267 182.146 34.5477 182.146 34.9638V40.9376C182.146 41.3596 182.021 41.6866 181.771 41.9184C181.522 42.1561 181.242 42.3701 180.927 42.5663C180.612 42.7624 180.333 42.9705 180.083 43.1964C179.833 43.4222 179.709 43.7432 179.709 44.1593V53.2419V53.2479Z" fill="#5A82F1"/>
<path d="M203.42 53.2479C203.42 54.086 203.194 54.7577 202.754 55.251C202.308 55.7503 201.708 56 200.947 56H185.493C184.732 56 184.131 55.7503 183.686 55.251C183.24 54.7517 183.02 54.086 183.02 53.2479V36.3428C183.02 35.5047 183.24 34.7854 183.686 34.1791C184.131 33.5788 184.72 33.234 185.457 33.1567C187.739 32.8417 189.951 32.9844 192.102 33.5907V31.3913C189.951 30.791 187.739 30.6424 185.457 30.9574C184.696 31.0347 184.102 30.8742 183.668 30.4641C183.234 30.0599 183.02 29.4476 183.02 28.6333V23.8364C183.02 22.9982 183.24 22.3265 183.686 21.8332C184.131 21.3339 184.732 21.0842 185.493 21.0842H200.947C201.708 21.0842 202.308 21.3339 202.754 21.8332C203.2 22.3325 203.42 22.9982 203.42 23.8364V40.7414C203.42 41.6093 203.188 42.3404 202.73 42.9408C202.273 43.5411 201.69 43.8859 200.983 43.9632C198.831 44.2009 196.62 44.0404 194.337 43.4936V45.6929C196.62 46.2457 198.831 46.4002 200.983 46.1625C201.744 46.0852 202.338 46.2397 202.772 46.6321C203.206 47.0244 203.42 47.6307 203.42 48.4391V53.236V53.2479ZM215.962 53.2479C215.962 54.086 215.736 54.7577 215.296 55.251C214.851 55.7503 214.25 56 213.489 56H207.082C206.321 56 205.72 55.7503 205.275 55.251C204.829 54.7517 204.609 54.086 204.609 53.2479V23.8364C204.609 22.9982 204.829 22.3265 205.275 21.8332C205.72 21.3339 206.321 21.0842 207.082 21.0842H213.489C214.25 21.0842 214.851 21.3339 215.296 21.8332C215.742 22.3325 215.962 22.9982 215.962 23.8364V53.2479Z" fill="#5A82F1"/>
</svg>
