<svg width="271" height="358" viewBox="0 0 271 358" fill="none" xmlns="http://www.w3.org/2000/svg">
<path d="M264.485 263.845C264.562 263.608 264.633 263.371 264.709 263.134C264.831 262.743 264.959 262.346 265.075 261.955C265.267 261.321 265.459 260.686 265.645 260.046C265.741 259.719 265.837 259.392 265.933 259.066C266.196 258.131 266.452 257.189 266.695 256.247C266.766 255.965 266.836 255.683 266.907 255.402C267.086 254.697 267.259 253.986 267.426 253.275C267.509 252.916 267.592 252.551 267.675 252.192C267.829 251.526 267.97 250.853 268.111 250.187C268.181 249.848 268.258 249.508 268.322 249.169C268.508 248.259 268.681 247.349 268.848 246.44C268.867 246.35 268.886 246.26 268.899 246.164C269.078 245.165 269.238 244.166 269.399 243.16C269.45 242.84 269.495 242.513 269.539 242.186C269.642 241.469 269.744 240.758 269.841 240.04C269.885 239.688 269.93 239.342 269.975 238.99C270.071 238.215 270.161 237.44 270.238 236.664C270.263 236.402 270.295 236.139 270.321 235.883C270.423 234.858 270.513 233.827 270.596 232.795C270.616 232.546 270.628 232.302 270.648 232.052C270.705 231.252 270.757 230.451 270.801 229.644C270.821 229.298 270.84 228.945 270.853 228.6C270.885 227.856 270.917 227.107 270.936 226.357C270.949 226.031 270.955 225.71 270.962 225.384C270.987 224.333 271 223.283 271 222.226C271 222.226 271 222.219 271 222.213C271 221.169 270.981 220.131 270.962 219.093C270.962 218.818 270.949 218.542 270.942 218.273C270.917 217.376 270.885 216.48 270.84 215.583C270.833 215.435 270.827 215.282 270.821 215.134C270.769 214.116 270.705 213.097 270.628 212.085C270.609 211.823 270.59 211.566 270.564 211.31C270.5 210.477 270.423 209.651 270.347 208.825C270.327 208.6 270.308 208.376 270.283 208.158C270.18 207.159 270.065 206.166 269.943 205.173C269.911 204.943 269.879 204.712 269.853 204.488C269.744 203.681 269.636 202.874 269.514 202.066C269.475 201.804 269.437 201.548 269.399 201.285C269.245 200.305 269.085 199.331 268.912 198.357C268.88 198.178 268.848 198.005 268.816 197.826C268.668 197.006 268.508 196.186 268.348 195.366C268.29 195.084 268.233 194.802 268.175 194.52C267.976 193.572 267.771 192.624 267.554 191.676C267.534 191.599 267.515 191.516 267.496 191.439C267.285 190.542 267.067 189.645 266.843 188.749C266.772 188.46 266.695 188.179 266.618 187.89C266.413 187.102 266.202 186.314 265.978 185.533C265.927 185.354 265.882 185.174 265.831 184.995C265.568 184.079 265.292 183.163 265.017 182.253C264.927 181.971 264.838 181.683 264.748 181.401C264.524 180.69 264.293 179.985 264.062 179.281C263.979 179.031 263.896 178.775 263.813 178.525C263.512 177.634 263.198 176.757 262.877 175.873C262.781 175.604 262.679 175.335 262.576 175.066C262.326 174.393 262.077 173.727 261.814 173.061C261.699 172.772 261.59 172.484 261.474 172.196C261.135 171.338 260.783 170.479 260.424 169.634C260.321 169.397 260.219 169.16 260.116 168.922C259.835 168.263 259.546 167.603 259.252 166.95C259.111 166.642 258.976 166.335 258.835 166.027C258.489 165.265 258.137 164.509 257.772 163.753C257.657 163.51 257.535 163.266 257.42 163.023C257.086 162.337 256.747 161.652 256.401 160.966C256.241 160.653 256.081 160.332 255.914 160.018C255.594 159.403 255.267 158.788 254.941 158.173C254.812 157.936 254.684 157.693 254.556 157.456C254.133 156.674 253.698 155.899 253.256 155.131C253.076 154.817 252.891 154.503 252.711 154.189C252.391 153.645 252.071 153.1 251.75 152.556C251.577 152.261 251.404 151.973 251.225 151.684C250.77 150.941 250.309 150.205 249.841 149.468C249.643 149.16 249.444 148.853 249.246 148.552C248.919 148.046 248.586 147.546 248.253 147.04C248.041 146.726 247.83 146.412 247.619 146.098C247.132 145.387 246.645 144.683 246.152 143.978C245.947 143.69 245.742 143.408 245.537 143.12C245.184 142.633 244.838 142.152 244.48 141.672C244.243 141.352 243.999 141.025 243.756 140.705C243.339 140.154 242.923 139.609 242.5 139.071C242.206 138.687 241.905 138.309 241.604 137.931C241.219 137.444 240.828 136.964 240.438 136.483C240.175 136.157 239.906 135.836 239.637 135.516C239.265 135.068 238.894 134.626 238.516 134.19C238.196 133.818 237.882 133.447 237.555 133.075C237.087 132.544 236.62 132.012 236.146 131.487C235.857 131.166 235.569 130.852 235.281 130.539C234.916 130.141 234.551 129.751 234.186 129.36C233.904 129.059 233.622 128.758 233.34 128.463C232.77 127.867 232.193 127.278 231.617 126.695C231.316 126.388 231.008 126.086 230.701 125.785C230.336 125.427 229.964 125.068 229.599 124.709C229.285 124.402 228.965 124.101 228.651 123.793C228.055 123.229 227.459 122.672 226.857 122.128C226.543 121.839 226.223 121.558 225.909 121.276C225.531 120.936 225.147 120.597 224.762 120.257C224.423 119.956 224.077 119.661 223.738 119.367C223.296 118.989 222.854 118.617 222.412 118.246C221.925 117.836 221.431 117.432 220.932 117.029C220.522 116.696 220.112 116.362 219.702 116.036C219.343 115.747 218.978 115.466 218.613 115.177C218.209 114.863 217.799 114.55 217.389 114.236C216.883 113.851 216.371 113.467 215.858 113.089C215.384 112.737 214.904 112.384 214.423 112.045C214.046 111.776 213.668 111.507 213.29 111.244C212.886 110.962 212.482 110.68 212.072 110.399C211.707 110.149 211.336 109.892 210.971 109.643C210.298 109.194 209.625 108.746 208.94 108.31C208.556 108.06 208.171 107.817 207.781 107.574C207.364 107.311 206.948 107.055 206.531 106.792C206.141 106.549 205.75 106.312 205.359 106.075C204.661 105.652 203.963 105.242 203.258 104.832C202.88 104.614 202.496 104.403 202.118 104.185C201.676 103.935 201.234 103.685 200.785 103.442C200.382 103.224 199.985 103 199.581 102.782C199.491 102.731 199.402 102.679 199.306 102.635C192.266 98.8744 184.86 95.7163 177.154 93.2308C176.911 93.1476 176.667 93.0707 176.417 92.9938C176.04 92.8721 175.655 92.7568 175.277 92.6351C174.624 92.4365 173.97 92.2443 173.317 92.0522C173.003 91.9625 172.696 91.8664 172.382 91.7831C171.44 91.5141 170.492 91.2578 169.538 91.0144C169.269 90.9439 169.006 90.8799 168.737 90.8158C168.013 90.6365 167.289 90.4571 166.565 90.2841C166.213 90.2009 165.861 90.124 165.508 90.0407C164.829 89.887 164.15 89.7396 163.465 89.5987C163.132 89.5282 162.805 89.4578 162.472 89.3937C161.543 89.2079 160.614 89.0286 159.679 88.862C159.608 88.8492 159.538 88.8364 159.468 88.8236C158.468 88.6442 157.463 88.4777 156.45 88.3239C156.136 88.2727 155.816 88.2278 155.502 88.183C154.778 88.0741 154.061 87.978 153.331 87.8819C152.985 87.8371 152.639 87.7923 152.293 87.7474C151.511 87.6513 150.73 87.5616 149.948 87.4784C149.692 87.4527 149.436 87.4207 149.18 87.3951C148.155 87.2926 147.117 87.2029 146.086 87.1196C145.842 87.1004 145.599 87.0876 145.355 87.0684C144.548 87.0107 143.741 86.9595 142.934 86.9146C142.588 86.8954 142.242 86.8826 141.89 86.8634C141.14 86.8314 140.391 86.7993 139.641 86.7801C139.321 86.7673 138.994 86.7609 138.674 86.7545C137.617 86.7289 136.56 86.7161 135.503 86.7161C60.6635 86.6969 0 147.36 0 222.2C0 297.04 54.9623 351.823 124.799 357.28C128.329 357.556 131.903 357.703 135.503 357.703C136.547 357.703 137.585 357.684 138.623 357.665C138.898 357.665 139.167 357.652 139.443 357.646C140.34 357.62 141.236 357.588 142.127 357.543C142.274 357.537 142.428 357.53 142.582 357.524C143.6 357.473 144.619 357.409 145.631 357.332C145.887 357.313 146.15 357.293 146.406 357.268C147.239 357.204 148.072 357.127 148.898 357.043C149.122 357.024 149.34 357.005 149.564 356.979C150.563 356.877 151.563 356.762 152.556 356.64C152.78 356.614 153.01 356.582 153.235 356.55C154.048 356.441 154.855 356.332 155.662 356.211C155.919 356.172 156.175 356.134 156.438 356.095C157.418 355.942 158.398 355.782 159.371 355.609C159.544 355.577 159.711 355.544 159.878 355.512C160.71 355.359 161.537 355.205 162.357 355.038C162.632 354.981 162.908 354.93 163.183 354.872C164.144 354.673 165.111 354.462 166.066 354.244C166.123 354.231 166.174 354.218 166.232 354.206C167.148 353.994 168.058 353.77 168.967 353.539C169.249 353.469 169.531 353.399 169.807 353.322C170.607 353.11 171.402 352.899 172.19 352.675C172.363 352.63 172.536 352.579 172.702 352.534C173.624 352.271 174.547 351.996 175.463 351.714C175.738 351.63 176.014 351.541 176.283 351.458C177.007 351.227 177.724 350.996 178.442 350.753C178.679 350.67 178.922 350.593 179.159 350.516C180.056 350.208 180.946 349.895 181.83 349.574C182.087 349.478 182.343 349.382 182.599 349.286C183.285 349.03 183.964 348.773 184.643 348.511C184.924 348.402 185.2 348.293 185.482 348.184C186.347 347.838 187.211 347.486 188.07 347.127C188.294 347.031 188.512 346.935 188.736 346.839C189.415 346.551 190.088 346.256 190.76 345.955C191.061 345.82 191.356 345.686 191.651 345.551C192.432 345.193 193.214 344.834 193.989 344.462C194.2 344.36 194.412 344.257 194.623 344.155C195.334 343.809 196.039 343.457 196.743 343.104C197.051 342.951 197.352 342.79 197.659 342.637C198.293 342.31 198.921 341.977 199.555 341.637C199.78 341.516 200.01 341.4 200.234 341.279C201.022 340.849 201.804 340.414 202.579 339.965C202.886 339.792 203.188 339.613 203.495 339.434C204.052 339.107 204.61 338.78 205.161 338.447C205.442 338.281 205.724 338.108 206.006 337.941C206.756 337.48 207.499 337.019 208.242 336.545C208.536 336.353 208.831 336.16 209.126 335.968C209.645 335.635 210.157 335.296 210.67 334.95C210.977 334.745 211.285 334.54 211.586 334.335C212.303 333.848 213.014 333.355 213.719 332.855C214.001 332.656 214.276 332.458 214.552 332.253C215.045 331.894 215.538 331.542 216.025 331.177C216.345 330.94 216.665 330.703 216.979 330.466C217.537 330.043 218.088 329.62 218.638 329.191C219.01 328.903 219.375 328.614 219.74 328.326C220.234 327.935 220.727 327.538 221.214 327.141C221.534 326.878 221.854 326.616 222.175 326.347C222.623 325.969 223.071 325.591 223.513 325.213C223.872 324.905 224.237 324.591 224.596 324.284C225.14 323.81 225.672 323.336 226.21 322.855C226.524 322.567 226.844 322.279 227.158 321.991C227.555 321.625 227.946 321.26 228.337 320.895C228.638 320.613 228.939 320.331 229.234 320.05C229.83 319.479 230.412 318.903 231.002 318.326C231.309 318.019 231.617 317.711 231.918 317.404C232.277 317.039 232.635 316.674 232.988 316.309C233.295 315.988 233.603 315.674 233.904 315.354C234.461 314.765 235.018 314.169 235.569 313.567C235.864 313.247 236.146 312.926 236.434 312.6C236.767 312.228 237.1 311.85 237.433 311.472C237.734 311.126 238.042 310.78 238.337 310.428C238.702 310.005 239.06 309.576 239.419 309.147C239.848 308.634 240.271 308.122 240.694 307.603C241.014 307.206 241.341 306.809 241.655 306.405C241.949 306.034 242.238 305.668 242.526 305.297C242.833 304.906 243.135 304.509 243.436 304.112C243.839 303.58 244.243 303.042 244.64 302.504C244.973 302.049 245.312 301.594 245.639 301.133C245.915 300.749 246.19 300.358 246.459 299.974C246.735 299.583 247.004 299.192 247.273 298.801C247.535 298.423 247.798 298.045 248.054 297.661C248.503 296.995 248.938 296.329 249.374 295.656C249.63 295.259 249.88 294.862 250.13 294.465C250.38 294.067 250.629 293.664 250.879 293.26C251.129 292.857 251.379 292.453 251.622 292.05C252.026 291.383 252.423 290.711 252.814 290.038C253.057 289.622 253.288 289.205 253.525 288.783C253.762 288.36 253.999 287.937 254.236 287.508C254.466 287.091 254.691 286.681 254.915 286.265C254.96 286.175 255.011 286.092 255.056 286.009C258.816 278.969 261.974 271.564 264.46 263.851H264.466L264.485 263.845Z" fill="#FFF465"/>
<path d="M104.838 237.049C122.552 237.049 136.912 222.689 136.912 204.975C136.912 187.261 122.552 172.901 104.838 172.901C87.1238 172.901 72.7637 187.261 72.7637 204.975C72.7637 222.689 87.1238 237.049 104.838 237.049Z" fill="white"/>
<path d="M99.2516 227.754C110.244 227.754 119.155 218.843 119.155 207.851C119.155 196.859 110.244 187.948 99.2516 187.948C88.2595 187.948 79.3486 196.859 79.3486 207.851C79.3486 218.843 88.2595 227.754 99.2516 227.754Z" fill="#121212"/>
<path d="M166.052 237.049C183.766 237.049 198.126 222.689 198.126 204.975C198.126 187.26 183.766 172.9 166.052 172.9C148.338 172.9 133.978 187.26 133.978 204.975C133.978 222.689 148.338 237.049 166.052 237.049Z" fill="white"/>
<path d="M161.036 228.99C172.028 228.99 180.939 220.079 180.939 209.087C180.939 198.095 172.028 189.184 161.036 189.184C150.044 189.184 141.133 198.095 141.133 209.087C141.133 220.079 150.044 228.99 161.036 228.99Z" fill="#121212"/>
<path d="M117.195 151.748C114.338 164.176 100.905 168.647 90.207 161.761" stroke="#F49A22" stroke-width="6.40586" stroke-miterlimit="10" stroke-linecap="round"/>
<path d="M178.428 161.12C168.493 169.115 155.168 164.31 151.03 152.28" stroke="#F49A22" stroke-width="6.40586" stroke-miterlimit="10" stroke-linecap="round"/>
<path d="M132.602 245.018C140.505 245.018 146.912 238.611 146.912 230.707C146.912 222.803 140.505 216.396 132.602 216.396C124.698 216.396 118.291 222.803 118.291 230.707C118.291 238.611 124.698 245.018 132.602 245.018Z" fill="#F49A22"/>
<path d="M154.772 203.149C157.057 203.149 158.91 201.296 158.91 199.011C158.91 196.726 157.057 194.873 154.772 194.873C152.487 194.873 150.634 196.726 150.634 199.011C150.634 201.296 152.487 203.149 154.772 203.149Z" fill="white"/>
<path d="M91.3667 203.149C93.6522 203.149 95.5049 201.296 95.5049 199.011C95.5049 196.726 93.6522 194.873 91.3667 194.873C89.0812 194.873 87.2285 196.726 87.2285 199.011C87.2285 201.296 89.0812 203.149 91.3667 203.149Z" fill="white"/>
<path d="M133.088 280.801C140.291 280.801 146.131 274.961 146.131 267.758C146.131 260.555 140.291 254.716 133.088 254.716C125.885 254.716 120.046 260.555 120.046 267.758C120.046 274.961 125.885 280.801 133.088 280.801Z" stroke="#F49A22" stroke-width="6.40586" stroke-miterlimit="10" stroke-linecap="round"/>
<path d="M147.699 39.5431C146.22 41.0677 144.868 42.272 143.644 43.1368C142.421 44.008 141.505 44.4372 140.89 44.4372H128.732C127.149 44.4372 125.913 43.9119 125.023 42.8678C124.132 41.8236 123.812 40.5617 124.062 39.0819C124.216 38.1595 124.523 37.1858 124.978 36.1352C125.439 35.0911 126.253 34.0533 127.425 33.0348L134.696 26.757C135.355 25.9499 136.009 25.0531 136.643 24.0794C137.283 23.1121 137.597 22.0167 137.597 20.7932V19.3455C137.597 17.8145 136.957 17.0458 135.688 17.0458H135.304C134.081 17.0458 133.466 17.8145 133.466 19.3455V19.5697C133.466 21.2096 133.024 22.51 132.127 23.4708C131.236 24.4445 130.077 24.925 128.648 24.925H117.406C115.926 24.925 114.754 24.4381 113.889 23.4708C113.018 22.5036 112.589 21.2032 112.589 19.5697V16.3603C112.589 10.9602 113.941 6.87965 116.644 4.12513C119.347 1.37061 123.069 -0.000244141 127.809 -0.000244141H143.183C147.975 -0.000244141 151.716 1.37702 154.394 4.12513C157.071 6.87965 158.41 10.9602 158.41 16.3603V22.9391C158.41 25.5399 157.936 27.8076 156.994 29.7486C156.053 31.6832 154.611 33.4704 152.677 35.1039C151.959 35.6612 151.12 36.3658 150.153 37.205C149.179 38.0442 148.366 38.8257 147.706 39.5367L147.699 39.5431ZM145.714 62.9438C145.714 64.5773 145.278 65.8776 144.413 66.8385C143.542 67.8122 142.37 68.2927 140.89 68.2927H128.732C127.252 68.2927 126.08 67.8058 125.208 66.8385C124.337 65.8712 123.908 64.5708 123.908 62.9438V53.2261C123.908 51.5926 124.344 50.2922 125.208 49.3249C126.08 48.3576 127.245 47.8772 128.732 47.8772H140.89C142.37 47.8772 143.542 48.364 144.413 49.3249C145.278 50.2986 145.714 51.599 145.714 53.2261V62.9438Z" fill="#F49A22"/>
<path d="M191.683 55.2697C190.287 56.0256 189.057 56.5829 187.993 56.9288C186.923 57.2747 186.174 57.3772 185.738 57.2427L177.065 54.5266C175.937 54.1743 175.169 53.5273 174.765 52.5792C174.362 51.6311 174.413 50.6639 174.925 49.6645C175.239 49.0432 175.675 48.4154 176.238 47.7684C176.802 47.1278 177.616 46.5705 178.679 46.1029L185.264 43.2459C185.918 42.8167 186.578 42.3234 187.25 41.7725C187.923 41.228 188.39 40.517 188.666 39.6394L188.993 38.6016C189.332 37.5062 189.05 36.8208 188.141 36.5389L187.865 36.4556C186.994 36.1802 186.385 36.5902 186.039 37.6856L185.988 37.8457C185.623 39.0116 185.015 39.8443 184.163 40.3312C183.311 40.8244 182.375 40.9141 181.357 40.5938L173.33 38.0827C172.273 37.7496 171.549 37.1475 171.146 36.2571C170.742 35.3731 170.723 34.3481 171.088 33.1823L171.806 30.889C173.01 27.0326 174.887 24.4254 177.43 23.061C179.973 21.7029 182.933 21.5492 186.321 22.6062L197.288 26.0397C200.709 27.1095 203.066 28.9224 204.367 31.4847C205.661 34.047 205.705 37.2564 204.501 41.1127L203.034 45.8082C202.451 47.6659 201.612 49.1777 200.504 50.35C199.402 51.5222 197.974 52.4767 196.225 53.207C195.591 53.444 194.835 53.7643 193.957 54.1422C193.08 54.5266 192.324 54.8981 191.689 55.2633L191.683 55.2697ZM185.04 71.5277C184.675 72.6936 184.073 73.52 183.24 74.0196C182.401 74.5193 181.459 74.6026 180.402 74.2759L171.729 71.5598C170.672 71.2267 169.948 70.6245 169.544 69.7341C169.141 68.8501 169.122 67.8252 169.487 66.6657L171.658 59.7346C172.023 58.5687 172.619 57.7423 173.458 57.2427C174.291 56.7494 175.239 56.6597 176.296 56.9928L184.97 59.7089C186.027 60.042 186.751 60.6442 187.161 61.5282C187.564 62.4122 187.583 63.4371 187.218 64.603L185.047 71.5341L185.04 71.5277Z" fill="#FFC58B"/>
</svg>
