<svg width="135" height="129" viewBox="0 0 135 129" fill="none" xmlns="http://www.w3.org/2000/svg">
<circle cx="66.1632" cy="66.0319" r="49.1083" fill="#6783ED"/>
<path d="M46.333 68.1924L64.5289 88.6214L83.4744 43.3074" stroke="white" stroke-width="7" stroke-linecap="round" stroke-linejoin="round"/>
<path d="M6.26611 59.1564C19.9958 -18.5381 117.659 -10.1122 126.395 59.1564" stroke="#9EB5F5" stroke-width="7" stroke-linecap="round" stroke-linejoin="round"/>
<path d="M118.9 57.2539L133.162 55.1396C133.901 55.0311 134.496 56.3958 134.129 57.3521L129.368 69.7429C128.944 70.8491 127.962 71.0197 127.223 70.1151L118.642 59.6783C117.99 58.8822 118.151 57.3624 118.9 57.2539Z" fill="#9EB5F5"/>
<path d="M15.3434 82.3517L0.972728 83.4838C0.228349 83.5406 -0.273072 82.1397 0.161149 81.2093L5.7595 69.17C6.25575 68.0999 7.24826 67.9966 7.92543 68.9425L15.7724 79.9428C16.3669 80.7802 16.1033 82.2845 15.3485 82.3465L15.3434 82.3517Z" fill="#9EB5F5"/>
<path d="M123.025 77.4043C113.664 142.136 20.3814 139.21 8.78369 82.3611" stroke="#9EB5F5" stroke-width="7" stroke-linecap="round" stroke-linejoin="round"/>
</svg>
