<svg width="133" height="108" viewBox="0 0 133 108" fill="none" xmlns="http://www.w3.org/2000/svg">
<path d="M111.183 -0.000244141L75.7569 -0.000244141C74.0809 -0.000244141 72.7222 1.35845 72.7222 3.03448V13.8831C72.7222 15.5592 74.0809 16.9179 75.7569 16.9179L111.183 16.9179C112.859 16.9179 114.218 15.5592 114.218 13.8831V3.03448C114.218 1.35845 112.859 -0.000244141 111.183 -0.000244141Z" fill="#6783ED"/>
<path d="M117.335 13.4919L15.5989 13.4919C6.98385 13.4919 0 20.4758 0 29.0908L0 91.955C0 100.57 6.98385 107.554 15.5989 107.554L117.335 107.554C125.95 107.554 132.933 100.57 132.933 91.955V29.0908C132.933 20.4758 125.95 13.4919 117.335 13.4919Z" fill="#9EB5F5"/>
<path d="M84.7643 92.7375C102.854 92.7375 117.518 78.0731 117.518 59.9837C117.518 41.8943 102.854 27.23 84.7643 27.23C66.6749 27.23 52.0105 41.8943 52.0105 59.9837C52.0105 78.0731 66.6749 92.7375 84.7643 92.7375Z" fill="#6783ED"/>
<path d="M84.7644 84.2808C98.1833 84.2808 109.062 73.4026 109.062 59.9836C109.062 46.5647 98.1833 35.6865 84.7644 35.6865C71.3455 35.6865 60.4673 46.5647 60.4673 59.9836C60.4673 73.4026 71.3455 84.2808 84.7644 84.2808Z" fill="#9EB5F5"/>
<path d="M84.9245 77.1584C94.3669 77.1584 102.021 69.5039 102.021 60.0615C102.021 50.6191 94.3669 42.9646 84.9245 42.9646C75.4822 42.9646 67.8276 50.6191 67.8276 60.0615C67.8276 69.5039 75.4822 77.1584 84.9245 77.1584Z" fill="white"/>
<path d="M84.9244 70.8377C90.8759 70.8377 95.7005 66.0131 95.7005 60.0616C95.7005 54.1101 90.8759 49.2854 84.9244 49.2854C78.9728 49.2854 74.1482 54.1101 74.1482 60.0616C74.1482 66.0131 78.9728 70.8377 84.9244 70.8377Z" fill="#9EB5F5"/>
<path d="M85 71C91.0751 71 96 66.0751 96 60C96 53.9249 91.0751 49 85 49C78.9249 49 74 53.9249 74 60C74 66.0751 78.9249 71 85 71Z" fill="#6783ED"/>
<path d="M17.4354 30.6081C20.219 30.6081 22.4756 28.3516 22.4756 25.568C22.4756 22.7844 20.219 20.5278 17.4354 20.5278C14.6518 20.5278 12.3953 22.7844 12.3953 25.568C12.3953 28.3516 14.6518 30.6081 17.4354 30.6081Z" fill="#6783ED"/>
<path d="M31.3527 30.6081C34.1363 30.6081 36.3928 28.3516 36.3928 25.568C36.3928 22.7844 34.1363 20.5278 31.3527 20.5278C28.5691 20.5278 26.3125 22.7844 26.3125 25.568C26.3125 28.3516 28.5691 30.6081 31.3527 30.6081Z" fill="#4865C1"/>
</svg>
