<svg width="120" height="120" viewBox="0 0 120 120" fill="none" xmlns="http://www.w3.org/2000/svg">
<path d="M60 120C93.1371 120 120 93.1371 120 60C120 26.8629 93.1371 0 60 0C26.8629 0 0 26.8629 0 60C0 93.1371 26.8629 120 60 120Z" fill="#9EB5F5"/>
<path d="M37.6458 53.6979C41.3789 53.6979 44.4051 50.6716 44.4051 46.9385C44.4051 43.2055 41.3789 40.1792 37.6458 40.1792C33.9127 40.1792 30.8865 43.2055 30.8865 46.9385C30.8865 50.6716 33.9127 53.6979 37.6458 53.6979Z" fill="white"/>
<path d="M72.2933 53.6979C76.0263 53.6979 79.0526 50.6716 79.0526 46.9385C79.0526 43.2055 76.0263 40.1792 72.2933 40.1792C68.5602 40.1792 65.5339 43.2055 65.5339 46.9385C65.5339 50.6716 68.5602 53.6979 72.2933 53.6979Z" fill="white"/>
<path d="M68.9661 62.7002C68.9661 70.4012 62.723 76.6443 55.022 76.6443C47.321 76.6443 41.0779 70.4012 41.0779 62.7002" stroke="white" stroke-width="2.83648" stroke-miterlimit="10" stroke-linecap="round"/>
</svg>
