<svg width="115" height="132" viewBox="0 0 115 132" fill="none" xmlns="http://www.w3.org/2000/svg">
<path d="M85.4074 15.2767C85.4074 15.2767 106.684 10.9065 105.778 10.9065C104.873 10.9065 101.025 38.2794 101.025 38.2794L114.832 59.6713L84.0459 69.1016L85.4044 15.2736L85.4074 15.2767Z" fill="#455DA8"/>
<path d="M84.1255 69.0038L78.4668 47.7273L95.8867 52.7114L84.1255 69.0038Z" fill="#233670"/>
<path d="M95.8868 52.7121C67.9852 50.7428 41.1138 57.5321 15.1389 71.9099L2.64526 19.3523C27.1432 5.2085 54.0906 -1.09452 83.3902 0.154531L95.8868 52.7152V52.7121Z" fill="#6783ED"/>
<path d="M35.0074 125.267L8.86674 14.6836C8.34895 12.4932 6.15419 11.1371 3.9646 11.6547C1.77501 12.1723 0.419747 14.3676 0.937537 16.558L27.0782 127.141C27.596 129.331 29.7908 130.687 31.9804 130.17C34.17 129.652 35.5252 127.457 35.0074 125.267Z" fill="#2C4184"/>
</svg>
