<svg width="119" height="116" viewBox="0 0 119 116" fill="none" xmlns="http://www.w3.org/2000/svg">
<path d="M106.887 21.0464C107.132 19.8827 107.262 18.6754 107.262 17.4377C107.262 7.80709 99.4544 0 89.8238 0C80.1932 0 72.3861 7.80709 72.3861 17.4377C72.3861 18.6754 72.5157 19.8814 72.7603 21.0464C65.7599 23.3115 60.6953 29.8836 60.6953 37.6391C60.6953 47.2697 68.5024 55.0768 78.133 55.0768C82.6303 55.0768 86.7295 53.3736 89.8225 50.5782C92.9155 53.3736 97.0147 55.0768 101.512 55.0768C111.143 55.0768 118.95 47.2697 118.95 37.6391C118.95 29.8836 113.886 23.3115 106.885 21.0464H106.887Z" fill="#455DA8"/>
<path d="M119 83.8933C119 76.3295 112.868 70.1978 105.304 70.1978C104.65 70.1978 104.007 70.2441 103.378 70.3327C103.004 67.4355 101.705 64.6361 99.4809 62.4106C94.132 57.0617 85.4601 57.0617 80.1126 62.4106C77.891 64.6321 76.5938 67.4262 76.2169 70.3182C75.6192 70.2388 75.0096 70.1965 74.3908 70.1965C66.827 70.1965 60.6953 76.3282 60.6953 83.892C60.6953 89.0676 63.5674 93.5728 67.8029 95.9015C67.0584 97.5901 66.6432 99.4573 66.6432 101.422C66.6432 108.986 72.7749 115.118 80.3387 115.118C83.8706 115.118 87.0905 113.78 89.5197 111.584C91.9488 113.781 95.1687 115.118 98.7007 115.118C106.264 115.118 112.396 108.986 112.396 101.422C112.396 99.5657 112.026 97.7951 111.357 96.1805C115.884 93.9457 118.999 89.2832 118.999 83.8933H119Z" fill="#6783ED"/>
<path d="M54.1234 77.8365C54.1234 68.8102 46.8069 61.4937 37.7806 61.4937C33.7461 61.4937 30.0528 62.9562 27.2019 65.38C24.3152 62.8107 20.5121 61.249 16.3428 61.249C7.31651 61.249 0 68.5655 0 77.5918C0 81.5628 1.41755 85.2032 3.77264 88.0357C1.41755 90.8681 0 94.5085 0 98.4795C0 107.506 7.31651 114.822 16.3428 114.822C20.3773 114.822 24.0706 113.36 26.9215 110.936C29.8082 113.505 33.6112 115.067 37.7806 115.067C46.8069 115.067 54.1234 107.75 54.1234 98.7241C54.1234 94.7532 52.7058 91.1128 50.3507 88.2803C52.7058 85.4478 54.1234 81.8074 54.1234 77.8365Z" fill="#455DA8"/>
<path d="M27.9715 57.9263C43.4197 57.9263 55.9429 45.4031 55.9429 29.9549C55.9429 14.5066 43.4197 1.9834 27.9715 1.9834C12.5232 1.9834 0 14.5066 0 29.9549C0 45.4031 12.5232 57.9263 27.9715 57.9263Z" fill="#9EB5F5"/>
</svg>
